# xmcd
#
# Track frame offsets:
#	150
#	13209
#	26886
#	43794
#	57871
#	72222
#	89421
#	103874
#	119408
#	135566
#	147982
#	163604
#	180466
#	193415
#	206657
#	220132
#	236372
#	251657
#	263891
#	281249
#	298352
#
# Disc length: 4170 seconds
#
# Revision: 1
# Processed by: cddbd v1.5.2PL0 Copyright (c) Steve Scherf et al.
# Submitted via: dBpowerAMP V4.0
#
DISCID=54104815
DTITLE=Various Artist - Hott Country Volume 249 Can
DYEAR=2016
DGENRE=Country
TTITLE0=Garth Brooks - Baby, Let's Lay Down And Dance
TTITLE1=Thomas Rhett - Star Of The Show
TTITLE2=Hunter Hayes - Yesterday's Song
TTITLE3=Lindsay Ell - All Alright
TTITLE4=Blake Shelton - A Guy With A Girl
TTITLE5=Brad Paisley - Today
TTITLE6=Chad Brownlee - Somethin' We Shouldn't Do
TTITLE7=Jake Owen - If he Ain't Gonna Love You
TTITLE8=Josh Abbott Band - Amnesia
TTITLE9=Justin Moore - Somebody Else Will
TTITLE10=Tucker Beathard - Momma And Jesus
TTITLE11=Alee - Are You Alone
TTITLE12=Tebey - Old School
TTITLE13=Brooke Eden - Diamonds
TTITLE14=Love And Theft - Candyland
TTITLE15=Abrams, The - Champion
TTITLE16=Jessie James Decker - Lights Down Low
TTITLE17=Chris Buck Band - Sun Sets Down
TTITLE18=Kacey Musgraves ft. Leon Bridges - Present Without A Bow
TTITLE19=Rascal Flatts - Hark! The Herald Angels Sing
TTITLE20=Rascal Flatts - Someday At Christmas
EXTD=
EXTT0=
EXTT1=
EXTT2=
EXTT3=
EXTT4=
EXTT5=
EXTT6=
EXTT7=
EXTT8=
EXTT9=
EXTT10=
EXTT11=
EXTT12=
EXTT13=
EXTT14=
EXTT15=
EXTT16=
EXTT17=
EXTT18=
EXTT19=
EXTT20=
PLAYORDER=
